<svg xmlns="http://www.w3.org/2000/svg" viewBox="0 0 440 100" fill="none">
  <!-- Back page shadow -->
  <rect x="10" y="20" width="46" height="58" rx="3" stroke="#1a3060" stroke-width="2" fill="white"/>
  <!-- Front page with folded corner -->
  <path d="M18 12 H54 L66 25 V77 a3 3 0 01-3 3 H18 a3 3 0 01-3-3 V15 a3 3 0 013-3z" stroke="#1a3060" stroke-width="2" fill="white"/>
  <!-- Fold crease -->
  <path d="M54 12 L66 25 H57 a3 3 0 01-3-3 V12z" stroke="#1a3060" stroke-width="2" fill="#e8edf5"/>
  <!-- Gavel head -->
  <rect x="29" y="31" width="20" height="9" rx="2" stroke="#1a3060" stroke-width="2" fill="white" transform="rotate(-38 39 35.5)"/>
  <!-- Gavel handle -->
  <line x1="35" y1="47" x2="47" y2="63" stroke="#1a3060" stroke-width="2" stroke-linecap="round"/>
  <!-- Base line -->
  <line x1="24" y1="68" x2="54" y2="68" stroke="#1a3060" stroke-width="2" stroke-linecap="round"/>
  <!-- Text -->
  <text x="86" y="44" font-family="Arial, Helvetica, sans-serif" font-weight="700" font-size="25" fill="#1a3060">Ontario</text>
  <text x="86" y="74" font-family="Arial, Helvetica, sans-serif" font-weight="700" font-size="25" fill="#1a3060">Accident Review</text>
</svg>
