<svg width="160" height="160" viewBox="0 0 160 160" fill="none" xmlns="http://www.w3.org/2000/svg">
  <rect x="8" y="8" width="144" height="144" rx="36" fill="url(#bg)"/>
  <rect x="8.5" y="8.5" width="143" height="143" rx="35.5" stroke="#17395F" stroke-opacity="0.14"/>
  <path d="M48 56C48 51.5817 51.5817 48 56 48H80C96.5685 48 110 61.4315 110 78C110 94.5685 96.5685 108 80 108H56C51.5817 108 48 104.418 48 100V56Z" fill="white" fill-opacity="0.86"/>
  <path d="M72 48H104C108.418 48 112 51.5817 112 56V100C112 104.418 108.418 108 104 108H80V80C80 62.3269 65.6731 48 48 48H72Z" fill="#17395F" fill-opacity="0.12"/>
  <circle cx="80" cy="80" r="18" fill="#235E66" fill-opacity="0.18"/>
  <path d="M80 67L83.8484 75.1516L92 79L83.8484 82.8484L80 91L76.1516 82.8484L68 79L76.1516 75.1516L80 67Z" fill="#17395F"/>
  <defs>
    <linearGradient id="bg" x1="24" y1="20" x2="128" y2="144" gradientUnits="userSpaceOnUse">
      <stop stop-color="#F8FBFF"/>
      <stop offset="1" stop-color="#EEF3F8"/>
    </linearGradient>
  </defs>
</svg>
